<?xml version="1.0" encoding="UTF-8" standalone="no"?>
<svg
   xmlns:dc="http://purl.org/dc/elements/1.1/"
   xmlns:cc="http://creativecommons.org/ns#"
   xmlns:rdf="http://www.w3.org/1999/02/22-rdf-syntax-ns#"
   xmlns:svg="http://www.w3.org/2000/svg"
   xmlns="http://www.w3.org/2000/svg"
   xmlns:xlink="http://www.w3.org/1999/xlink"
   xmlns:sodipodi="http://sodipodi.sourceforge.net/DTD/sodipodi-0.dtd"
   xmlns:inkscape="http://www.inkscape.org/namespaces/inkscape"
   inkscape:version="1.0 (6e3e5246a0, 2020-05-07)"
   sodipodi:docname="logo.svg"
   id="svg8536"
   version="1.1"
   fill="none"
   viewBox="0 0 268 309"
   height="309"
   width="268">
  <g
     transform="translate(-17.773764,93.205903)"
     id="g885">
    <g
       id="g9507"
       transform="translate(21.505922,-113.4333)">
      <path
         id="path8564"
         fill="url(#paint1_linear)"
         d="m 69.560184,179.29733 c -1.956989,-1.23944 -3.48,-3.072 -4.68,-5.328 -1.2,-2.304 -1.8,-4.92 -1.8,-7.848 0,-3.408 0.84,-6.48 2.52,-9.216 1.68,-2.784 4.08,-4.968 7.2,-6.552 3.072,-1.6318 6.648,-2.4478 10.728,-2.4478 4.08,0 7.704,0.816 10.872,2.4478 3.12,1.584 5.544,3.768 7.271996,6.552 1.728,2.736 2.592,5.808 2.592,9.216 0,2.976 -0.576,5.592 -1.728,7.848 -1.2,2.208 -2.735996,3.984 -4.607996,5.328 -5.711655,3.04675 -12.31819,3.3424 -13.996806,4.07503 -3.306599,1.44314 -3.570332,2.11239 -7.444972,3.12925 1.357335,-1.72069 3.929633,-2.88269 1.475881,-3.9231 -2.41443,-1.02373 -6.573113,-2.12281 -8.402103,-3.28118 z"
         style="fill:#9730ff;fill-opacity:1"
         sodipodi:nodetypes="scsccsccsccscss" />
      <path
         sodipodi:nodetypes="scsccsccsccscss"
         style="fill:#ff4d97;fill-opacity:1;stroke-width:0.837118"
         d="m 86.894232,180.47077 c -1.638231,-1.03755 -2.913175,-2.57162 -3.917715,-4.46016 -1.004542,-1.92872 -1.506815,-4.11862 -1.506812,-6.56971 -3e-6,-2.8529 0.703176,-5.42452 2.109535,-7.71488 1.406362,-2.33054 3.415445,-4.1588 6.027252,-5.4848 2.571631,-1.36601 5.565163,-2.0491 8.980607,-2.0491 3.415451,0 6.449161,0.68309 9.101151,2.0491 2.61181,1.326 4.64098,3.15425 6.08752,5.4848 1.44654,2.29036 2.16981,4.86198 2.16982,7.71488 -10e-6,2.49127 -0.48219,4.68117 -1.44655,6.56971 -1.00454,1.84836 -2.29035,3.33508 -3.85743,4.46016 -4.78134,2.5505 -10.31179,2.79799 -11.716987,3.41129 -2.768015,1.20808 -2.988798,1.76831 -6.232326,2.61955 1.136253,-1.44042 3.28957,-2.41315 1.235488,-3.2841 -2.021165,-0.85698 -5.502475,-1.77704 -7.033553,-2.74674 z"
         fill="url(#paint1_linear)"
         id="path9409"
         inkscape:transform-center-x="-5.6903931"
         inkscape:transform-center-y="-16.130052" />
      <path
         inkscape:transform-center-y="-12.74227"
         inkscape:transform-center-x="-4.4952381"
         id="path9411"
         fill="url(#paint1_linear)"
         d="m 103.44684,181.73742 c -1.29415,-0.81962 -2.30132,-2.0315 -3.09488,-3.52339 -0.79356,-1.52363 -1.19034,-3.25359 -1.19034,-5.18987 1e-5,-2.25371 0.5555,-4.28522 1.66648,-6.09454 1.11099,-1.84105 2.6981,-3.28533 4.76135,-4.33283 2.0315,-1.07913 4.39632,-1.61872 7.09441,-1.61872 2.69811,0 5.09465,0.53962 7.18965,1.61872 2.06325,1.0475 3.66624,2.49178 4.80896,4.33284 1.14275,1.80931 1.71409,3.84081 1.71409,6.09453 0,1.96803 -0.3809,3.69798 -1.14273,5.18988 -0.79355,1.46015 -1.80931,2.63462 -3.04725,3.52339 -3.77712,2.01483 -8.14602,2.21033 -9.25608,2.69482 -2.18665,0.95435 -2.36108,1.39688 -4.92336,2.06936 0.89761,-1.13788 2.59866,-1.90631 0.97601,-2.59434 -1.59666,-0.67699 -4.3468,-1.40381 -5.55631,-2.16985 z"
         style="fill:#ffb800;fill-opacity:1;stroke-width:0.661299"
         sodipodi:nodetypes="scsccsccsccscss" />
    </g>
    <text
       xml:space="preserve"
       style="font-style:normal;font-weight:normal;font-size:40px;line-height:1.25;font-family:sans-serif;fill:#9730ff;fill-opacity:1;stroke:none"
       x="67.65773"
       y="107.24116"
       id="text877"><tspan
         sodipodi:role="line"
         id="tspan875"
         x="67.65773"
         y="107.24116"
         style="font-style:normal;font-variant:normal;font-weight:600;font-stretch:normal;font-family:Poppins;-inkscape-font-specification:'Poppins Semi-Bold';fill:#9730ff;fill-opacity:1">boss</tspan></text>
  </g>
  <metadata
     id="metadata8540">
    <rdf:RDF>
      <cc:Work
         rdf:about="">
        <dc:format>image/svg+xml</dc:format>
        <dc:type
           rdf:resource="http://purl.org/dc/dcmitype/StillImage" />
        <dc:title></dc:title>
      </cc:Work>
    </rdf:RDF>
  </metadata>
  <sodipodi:namedview
     inkscape:current-layer="svg8536"
     inkscape:window-maximized="1"
     inkscape:window-y="1107"
     inkscape:window-x="41"
     inkscape:cy="199.25075"
     inkscape:cx="146.89284"
     inkscape:zoom="3.6920215"
     showgrid="false"
     id="namedview8538"
     inkscape:window-height="1025"
     inkscape:window-width="1879"
     inkscape:pageshadow="2"
     inkscape:pageopacity="0"
     guidetolerance="10"
     gridtolerance="10"
     objecttolerance="10"
     borderopacity="1"
     bordercolor="#666666"
     pagecolor="#ffffff"
     inkscape:document-rotation="0" />
  <path
     d="m 69.4582,245.944 c 1.296,-1.92 3.072,-3.48 5.328,-4.68 2.304,-1.2 4.92,-1.8 7.848,-1.8 3.408,0 6.48,0.84 9.216,2.52 2.784,1.68 4.968,4.08 6.552,7.2 1.6318,3.072 2.4478,6.648 2.4478,10.728 0,4.08 -0.816,7.704 -2.4478,10.872 -1.584,3.12 -3.768,5.544 -6.552,7.272 -2.736,1.728 -5.808,2.592 -9.216,2.592 -2.976,0 -5.592,-0.576 -7.848,-1.728 -2.208,-1.2 -3.984,-2.736 -5.328,-4.608 V 280 h -10.08 v -53.28 h 10.08 z m 21.096,13.968 c 0,-2.4 -0.504,-4.464 -1.512,-6.192 -0.96,-1.776 -2.256,-3.12 -3.888,-4.032 -1.584,-0.912 -3.312,-1.368 -5.184,-1.368 -1.824,0 -3.552,0.48 -5.184,1.44 -1.584,0.912 -2.88,2.256 -3.888,4.032 -0.96,1.776 -1.44,3.864 -1.44,6.264 0,2.4 0.48,4.488 1.44,6.264 1.008,1.776 2.304,3.144 3.888,4.104 1.632,0.912 3.36,1.368 5.184,1.368 1.872,0 3.6,-0.48 5.184,-1.44 1.632,-0.96 2.928,-2.328 3.888,-4.104 1.008,-1.776 1.512,-3.888 1.512,-6.336 z m 78.7988,20.736 c -3.264,0 -6.192,-0.576 -8.784,-1.728 -2.592,-1.2 -4.656,-2.808 -6.192,-4.824 -1.488,-2.016 -2.304,-4.248 -2.448,-6.696 h 10.152 c 0.192,1.536 0.936,2.808 2.232,3.816 1.344,1.008 3,1.512 4.968,1.512 1.92,0 3.408,-0.384 4.464,-1.152 1.104,-0.768 1.656,-1.752 1.656,-2.952 0,-1.296 -0.672,-2.256 -2.016,-2.88 -1.296,-0.672 -3.384,-1.392 -6.264,-2.16 -2.976,-0.72 -5.424,-1.464 -7.344,-2.232 -1.872,-0.768 -3.504,-1.944 -4.896,-3.528 -1.344,-1.584 -2.016,-3.72 -2.016,-6.408 0,-2.208 0.624,-4.224 1.872,-6.048 1.296,-1.824 3.12,-3.264 5.472,-4.32 2.4,-1.056 5.208,-1.584 8.424,-1.584 4.752,0 8.544,1.2 11.376,3.6 2.832,2.352 4.392,5.544 4.68,9.576 h -9.648 c -0.144,-1.584 -0.816,-2.832 -2.016,-3.744 -1.152,-0.96 -2.712,-1.44 -4.68,-1.44 -1.824,0 -3.24,0.336 -4.248,1.008 -0.96,0.672 -1.44,1.608 -1.44,2.808 0,1.344 0.672,2.376 2.016,3.096 1.344,0.672 3.432,1.368 6.264,2.088 2.88,0.72 5.256,1.464 7.128,2.232 1.872,0.768 3.48,1.968 4.824,3.6 1.392,1.584 2.112,3.696 2.16,6.336 0,2.304 -0.648,4.368 -1.944,6.192 -1.248,1.824 -3.072,3.264 -5.472,4.32 -2.352,1.008 -5.112,1.512 -8.28,1.512 z m 39.234,0 c -3.264,0 -6.192,-0.576 -8.784,-1.728 -2.592,-1.2 -4.656,-2.808 -6.192,-4.824 -1.488,-2.016 -2.304,-4.248 -2.448,-6.696 h 10.152 c 0.192,1.536 0.936,2.808 2.232,3.816 1.344,1.008 3,1.512 4.968,1.512 1.92,0 3.408,-0.384 4.464,-1.152 1.104,-0.768 1.656,-1.752 1.656,-2.952 0,-1.296 -0.672,-2.256 -2.016,-2.88 -1.296,-0.672 -3.384,-1.392 -6.264,-2.16 -2.976,-0.72 -5.424,-1.464 -7.344,-2.232 -1.872,-0.768 -3.504,-1.944 -4.896,-3.528 -1.344,-1.584 -2.016,-3.72 -2.016,-6.408 0,-2.208 0.624,-4.224 1.872,-6.048 1.296,-1.824 3.12,-3.264 5.472,-4.32 2.4,-1.056 5.208,-1.584 8.424,-1.584 4.752,0 8.544,1.2 11.376,3.6 2.832,2.352 4.392,5.544 4.68,9.576 h -9.648 c -0.144,-1.584 -0.816,-2.832 -2.016,-3.744 -1.152,-0.96 -2.712,-1.44 -4.68,-1.44 -1.824,0 -3.24,0.336 -4.248,1.008 -0.96,0.672 -1.44,1.608 -1.44,2.808 0,1.344 0.672,2.376 2.016,3.096 1.344,0.672 3.432,1.368 6.264,2.088 2.88,0.72 5.256,1.464 7.128,2.232 1.872,0.768 3.48,1.968 4.824,3.6 1.392,1.584 2.112,3.696 2.16,6.336 0,2.304 -0.648,4.368 -1.944,6.192 -1.248,1.824 -3.072,3.264 -5.472,4.32 -2.352,1.008 -5.112,1.512 -8.28,1.512 z"
     fill="url(#paint1_linear)"
     id="path8517"
     style="fill:#38acff;fill-opacity:1"
     sodipodi:nodetypes="ccsccsccscccccccsccsccsccsccsscccccscsccccsccsccccscsccsccccsscccccscsccccsccsccccscsccsccccs" />
  <defs
     id="defs8534">
    <linearGradient
       spreadMethod="pad"
       id="linearGradient8578"
       x1="250.11"
       y1="301.11499"
       x2="51.5914"
       y2="196.005"
       gradientUnits="userSpaceOnUse">
      <stop
         stop-color="#38ACFF"
         id="stop8574" />
      <stop
         offset="1"
         stop-color="#6BC0FE"
         id="stop8576" />
    </linearGradient>
    <linearGradient
       id="linearGradient8572"
       x1="250.11"
       y1="301.115"
       x2="51.5914"
       y2="196.005"
       gradientUnits="userSpaceOnUse">
      <stop
         stop-color="#38ACFF"
         id="stop8568" />
      <stop
         offset="1"
         stop-color="#6BC0FE"
         id="stop8570" />
    </linearGradient>
    <radialGradient
       gradientTransform="translate(189.111 174.889) rotate(-137.516) scale(156.618)"
       gradientUnits="userSpaceOnUse"
       r="1"
       cy="0"
       cx="0"
       id="paint0_radial">
      <stop
         id="stop8521"
         stop-color="#38ACFF" />
      <stop
         id="stop8523"
         stop-color="#E0F2FF"
         offset="1" />
    </radialGradient>
    <linearGradient
       xlink:href="#linearGradient8578"
       gradientUnits="userSpaceOnUse"
       y2="196.005"
       x2="51.5914"
       y1="301.115"
       x1="250.11"
       id="paint1_linear">
      <stop
         id="stop8526"
         stop-color="#38ACFF" />
      <stop
         id="stop8528"
         stop-color="#6BC0FE"
         offset="1" />
    </linearGradient>
    <clipPath
       id="clip0">
      <rect
         id="rect8531"
         fill="white"
         height="309"
         width="268" />
    </clipPath>
    <radialGradient
       r="1"
       cy="0"
       cx="0"
       gradientTransform="matrix(-115.50045,-105.77734,105.77734,-115.50045,189.111,174.889)"
       gradientUnits="userSpaceOnUse"
       id="radialGradient8560"
       xlink:href="#paint0_radial"
       inkscape:collect="always" />
    <linearGradient
       y2="196.005"
       x2="51.5914"
       y1="301.115"
       x1="250.11"
       gradientUnits="userSpaceOnUse"
       id="linearGradient8562"
       xlink:href="#paint1_linear"
       inkscape:collect="always" />
  </defs>
  <circle
     r="16.472885"
     cy="53.426773"
     cx="53.867233"
     id="path8542"
     style="fill:#9730ff;fill-opacity:1" />
  <circle
     r="13.743922"
     cy="36.93335"
     cx="57.349075"
     id="path8544"
     style="fill:#ffb800;fill-opacity:1" />
  <circle
     r="14.22947"
     cy="31.342041"
     cx="70.480453"
     id="path8546"
     style="fill:#ff4d97;fill-opacity:1" />
  <g
     transform="matrix(0.35767975,0,0,0.35767975,158.71804,114.27671)"
     clip-path="url(#clip0)"
     id="g8558">
    <circle
       style="fill:url(#radialGradient8560)"
       cx="133.5"
       cy="111.5"
       r="101.5"
       fill="url(#paint0_radial)"
       id="circle8548" />
    <path
       fill-rule="evenodd"
       clip-rule="evenodd"
       d="m 204.048,110.525 c 0.343,-2.544 0.519,-5.136 0.519,-7.764 0,-35.043 -31.34,-63.4508 -70,-63.4508 -38.6601,0 -70.0002,28.4078 -70.0002,63.4508 0,32.069 26.2472,58.582 60.3322,62.85 -4.766,6.898 -10.507,13.193 -17.047,18.729 52.485,-5.06 93.354,-35.879 96.196,-73.815 z"
       fill="#9730ff"
       id="path8550" />
    <path
       fill-rule="evenodd"
       clip-rule="evenodd"
       d="m 197.613,111.038 c 0.28,-2.241 0.424,-4.524 0.424,-6.839 0,-30.8611 -25.595,-55.8792 -57.169,-55.8792 -31.573,0 -57.1687,25.0181 -57.1687,55.8792 0,28.243 21.4357,51.592 49.2727,55.351 -3.892,6.075 -8.58,11.619 -13.922,16.494 42.864,-4.456 76.241,-31.597 78.563,-65.006 z"
       fill="#ff4d97"
       id="path8552" />
    <path
       fill-rule="evenodd"
       clip-rule="evenodd"
       d="m 190.8,111.883 c 0.215,-1.767 0.326,-3.566 0.326,-5.392 0,-24.3329 -19.674,-44.0589 -43.943,-44.0589 -24.269,0 -43.944,19.726 -43.944,44.0589 0,22.269 16.477,40.679 37.874,43.643 -2.991,4.79 -6.595,9.161 -10.701,13.005 32.948,-3.514 58.604,-24.914 60.388,-51.256 z"
       fill="#ffb800"
       id="path8554" />
    <path
       style="fill:url(#linearGradient8562)"
       d="m 69.4582,245.944 c 1.296,-1.92 3.072,-3.48 5.328,-4.68 2.304,-1.2 4.92,-1.8 7.848,-1.8 3.408,0 6.48,0.84 9.216,2.52 2.784,1.68 4.968,4.08 6.552,7.2 1.6318,3.072 2.4478,6.648 2.4478,10.728 0,4.08 -0.816,7.704 -2.4478,10.872 -1.584,3.12 -3.768,5.544 -6.552,7.272 -2.736,1.728 -5.808,2.592 -9.216,2.592 -2.976,0 -5.592,-0.576 -7.848,-1.728 -2.208,-1.2 -3.984,-2.736 -5.328,-4.608 V 280 h -10.08 v -53.28 h 10.08 z m 21.096,13.968 c 0,-2.4 -0.504,-4.464 -1.512,-6.192 -0.96,-1.776 -2.256,-3.12 -3.888,-4.032 -1.584,-0.912 -3.312,-1.368 -5.184,-1.368 -1.824,0 -3.552,0.48 -5.184,1.44 -1.584,0.912 -2.88,2.256 -3.888,4.032 -0.96,1.776 -1.44,3.864 -1.44,6.264 0,2.4 0.48,4.488 1.44,6.264 1.008,1.776 2.304,3.144 3.888,4.104 1.632,0.912 3.36,1.368 5.184,1.368 1.872,0 3.6,-0.48 5.184,-1.44 1.632,-0.96 2.928,-2.328 3.888,-4.104 1.008,-1.776 1.512,-3.888 1.512,-6.336 z m 35.3328,20.736 c -3.84,0 -7.296,-0.84 -10.368,-2.52 -3.072,-1.728 -5.496,-4.152 -7.272,-7.272 -1.728,-3.12 -2.592,-6.72 -2.592,-10.8 0,-4.08 0.888,-7.68 2.664,-10.8 1.824,-3.12 4.296,-5.52 7.416,-7.2 3.12,-1.728 6.6,-2.592 10.44,-2.592 3.84,0 7.32,0.864 10.44,2.592 3.12,1.68 5.568,4.08 7.344,7.2 1.824,3.12 2.736,6.72 2.736,10.8 0,4.08 -0.936,7.68 -2.808,10.8 -1.824,3.12 -4.32,5.544 -7.488,7.272 -3.12,1.68 -6.624,2.52 -10.512,2.52 z m 0,-8.784 c 1.824,0 3.528,-0.432 5.112,-1.296 1.632,-0.912 2.928,-2.256 3.888,-4.032 0.96,-1.776 1.44,-3.936 1.44,-6.48 0,-3.792 -1.008,-6.696 -3.024,-8.712 -1.968,-2.064 -4.392,-3.096 -7.272,-3.096 -2.88,0 -5.304,1.032 -7.272,3.096 -1.92,2.016 -2.88,4.92 -2.88,8.712 0,3.792 0.936,6.72 2.808,8.784 1.92,2.016 4.32,3.024 7.2,3.024 z m 43.466,8.784 c -3.264,0 -6.192,-0.576 -8.784,-1.728 -2.592,-1.2 -4.656,-2.808 -6.192,-4.824 -1.488,-2.016 -2.304,-4.248 -2.448,-6.696 h 10.152 c 0.192,1.536 0.936,2.808 2.232,3.816 1.344,1.008 3,1.512 4.968,1.512 1.92,0 3.408,-0.384 4.464,-1.152 1.104,-0.768 1.656,-1.752 1.656,-2.952 0,-1.296 -0.672,-2.256 -2.016,-2.88 -1.296,-0.672 -3.384,-1.392 -6.264,-2.16 -2.976,-0.72 -5.424,-1.464 -7.344,-2.232 -1.872,-0.768 -3.504,-1.944 -4.896,-3.528 -1.344,-1.584 -2.016,-3.72 -2.016,-6.408 0,-2.208 0.624,-4.224 1.872,-6.048 1.296,-1.824 3.12,-3.264 5.472,-4.32 2.4,-1.056 5.208,-1.584 8.424,-1.584 4.752,0 8.544,1.2 11.376,3.6 2.832,2.352 4.392,5.544 4.68,9.576 h -9.648 c -0.144,-1.584 -0.816,-2.832 -2.016,-3.744 -1.152,-0.96 -2.712,-1.44 -4.68,-1.44 -1.824,0 -3.24,0.336 -4.248,1.008 -0.96,0.672 -1.44,1.608 -1.44,2.808 0,1.344 0.672,2.376 2.016,3.096 1.344,0.672 3.432,1.368 6.264,2.088 2.88,0.72 5.256,1.464 7.128,2.232 1.872,0.768 3.48,1.968 4.824,3.6 1.392,1.584 2.112,3.696 2.16,6.336 0,2.304 -0.648,4.368 -1.944,6.192 -1.248,1.824 -3.072,3.264 -5.472,4.32 -2.352,1.008 -5.112,1.512 -8.28,1.512 z m 39.234,0 c -3.264,0 -6.192,-0.576 -8.784,-1.728 -2.592,-1.2 -4.656,-2.808 -6.192,-4.824 -1.488,-2.016 -2.304,-4.248 -2.448,-6.696 h 10.152 c 0.192,1.536 0.936,2.808 2.232,3.816 1.344,1.008 3,1.512 4.968,1.512 1.92,0 3.408,-0.384 4.464,-1.152 1.104,-0.768 1.656,-1.752 1.656,-2.952 0,-1.296 -0.672,-2.256 -2.016,-2.88 -1.296,-0.672 -3.384,-1.392 -6.264,-2.16 -2.976,-0.72 -5.424,-1.464 -7.344,-2.232 -1.872,-0.768 -3.504,-1.944 -4.896,-3.528 -1.344,-1.584 -2.016,-3.72 -2.016,-6.408 0,-2.208 0.624,-4.224 1.872,-6.048 1.296,-1.824 3.12,-3.264 5.472,-4.32 2.4,-1.056 5.208,-1.584 8.424,-1.584 4.752,0 8.544,1.2 11.376,3.6 2.832,2.352 4.392,5.544 4.68,9.576 h -9.648 c -0.144,-1.584 -0.816,-2.832 -2.016,-3.744 -1.152,-0.96 -2.712,-1.44 -4.68,-1.44 -1.824,0 -3.24,0.336 -4.248,1.008 -0.96,0.672 -1.44,1.608 -1.44,2.808 0,1.344 0.672,2.376 2.016,3.096 1.344,0.672 3.432,1.368 6.264,2.088 2.88,0.72 5.256,1.464 7.128,2.232 1.872,0.768 3.48,1.968 4.824,3.6 1.392,1.584 2.112,3.696 2.16,6.336 0,2.304 -0.648,4.368 -1.944,6.192 -1.248,1.824 -3.072,3.264 -5.472,4.32 -2.352,1.008 -5.112,1.512 -8.28,1.512 z"
       fill="url(#paint1_linear)"
       id="path8556" />
  </g>
  <g
     transform="translate(-21.201884,-49.54751)"
     id="g9498">
    <path
       fill-rule="evenodd"
       clip-rule="evenodd"
       d="m 166.63477,308.7027 c 0.0961,-0.71281 0.14542,-1.43906 0.14542,-2.17541 0,-9.81878 -8.78123,-17.77844 -19.61347,-17.77844 -10.83226,0 -19.61352,7.95966 -19.61352,17.77844 0,8.98549 7.35426,16.41424 16.90462,17.6101 -1.33539,1.93276 -2.94398,3.69658 -4.77644,5.24772 14.7059,-1.41778 26.15709,-10.05303 26.95339,-20.68241 z"
       fill="#9730ff"
       id="path8550-6"
       style="stroke-width:0.280193" />
    <path
       fill-rule="evenodd"
       clip-rule="evenodd"
       d="m 164.83174,308.84644 c 0.0785,-0.62791 0.11879,-1.26759 0.11879,-1.91624 0,-8.64704 -7.17152,-15.65693 -16.01832,-15.65693 -8.84651,0 -16.01823,7.00989 -16.01823,15.65693 0,7.91348 6.00612,14.4557 13.80583,15.50894 -1.0905,1.70217 -2.40405,3.25555 -3.90083,4.62149 12.01016,-1.24854 21.36215,-8.85324 22.01276,-18.21419 z"
       fill="#ff4d97"
       id="path8552-2"
       style="stroke-width:0.280193" />
    <path
       fill-rule="evenodd"
       clip-rule="evenodd"
       d="m 162.92278,309.0832 c 0.0602,-0.4951 0.0914,-0.99916 0.0914,-1.5108 0,-6.81789 -5.51251,-12.34497 -12.3125,-12.34497 -6.79999,0 -12.31277,5.52708 -12.31277,12.34497 0,6.23961 4.61673,11.39795 10.612,12.22845 -0.83806,1.34212 -1.84787,2.56684 -2.99834,3.6439 9.23178,-0.98459 16.4204,-6.98072 16.92026,-14.36155 z"
       fill="#ffb800"
       id="path8554-9"
       style="stroke-width:0.280193" />
  </g>
</svg>
